<svg xmlns="http://www.w3.org/2000/svg" viewBox="0 0 217 67.3" enable-background="new 0 0 217 67.3"><style type="text/css">.st0{fill:#000000;}</style><path d="M0 31.1l31.1 31.1 31.1-31.1L31.1 0 0 31.1zm45.3-9.3l9.3 9.3-11.2 11.2-4.5-4.5c-3 3.1-6.7 4.1-9.7 4.1-15.6-.1-16-21.1-2.3-21.4 4.3-.1 8.2 2.4 8.1 7.5-.2 7.5-10 7.1-10 2.5 0-1 .8-2 1.9-2 1.5 0 1.5 1.3 2.8 1.3 1 0 1.8-.9 1.9-1.8.3-5.1-10.3-6-10.6 2.5-.5 9.4 17.1 11.5 18.1-2.5.6-7.3-8.6-14.6-18.6-9.9L31.1 7.6l14.2 14.2zM79.7 8.2c1.3 0 2.3-.5 2.3-2.1 0-1.7-1.9-1.9-3.1-1.9h-1.7v4h2.5zm-8.3 9.7V.1H80c5.1 0 7.6 2.4 7.6 6 0 3.8-2.3 6.3-7.4 6.3h-2.9v5.5h-5.9zM93.5 11.4c0 2.5.9 3.5 2.2 3.5 1.4 0 2.2-1.1 2.2-3.5 0-1.9-.8-3.3-2.2-3.3-1.7 0-2.2 1.8-2.2 3.3m2.2-6.7c4.6 0 7.4 2.7 7.4 6.7 0 4.8-3.2 7-7.4 7s-7.4-2.3-7.4-6.7c0-4.5 3-7 7.4-7" class="st0"/><path d="M124.1 9.7V5h-2.5V1h-5.1v4h-1.1c-.2 0-1.7 0-1.9 0-2 0-3 .8-4 2.6h-.1V5h-4.7v13h5.2v-4.5c0-2.8 1.1-3.8 3.2-3.8.3 0 1.9-.1 2.3 0h1.1v3.7c0 4.5.8 5 7.6 4.6v-3.7h-.8c-1.4 0-1.6-.4-1.6-1.6v-3h2.4zM126.1 0h5.2v17.8h-5.2zM142.1 12.3c-1.7.8-3.9.4-3.9 2.1 0 .6.6 1.1 1.6 1.1 1.9 0 2.5-1.4 2.3-3.2m5.2 5.7h-4.9v-1.4c-1.5 1.4-2.9 1.8-4.9 1.8-2.5 0-4.6-1.2-4.6-3.9 0-5.9 9.2-3.2 9.2-5.6 0-.9-1.1-1.1-1.7-1.1-.7 0-1.7.1-1.8 1.3h-5c0-2.7 2-4.4 7.1-4.4 6.1 0 6.5 2.3 6.5 5.4l.1 7.9zM149.6 5h4.7v2c1.2-1.6 2.4-2.4 4.4-2.4 3.4 0 5 2 5 5.6V18h-5.2v-6.9c0-1.3-.3-2.4-1.8-2.4-1.6 0-2 1-2 2.7V18h-5.2V5zM175 11.7c0-1.4-.5-3-2.2-3-1.7 0-2.2 1.6-2.2 3.1 0 1.4.3 2.9 2 2.9 1.9 0 2.4-1.5 2.4-3m.4 6.3v-1.7c-1.2 1.6-2.3 2.1-4 2.1-3.9 0-5.9-2.9-5.9-6.6 0-4.3 2.4-7.1 5.5-7.1 1.6 0 2.8.4 3.9 1.7V.2h5.2V18h-4.7zM81.3 28.9c-.1-1.8-1.3-2.9-3.1-2.9-2.1 0-3.3 1.8-3.3 5.2 0 2.5.5 4.9 3.5 4.9 1.9 0 2.8-1.3 3-3H87c-.5 4.6-3.8 7.4-8.5 7.4-5.9 0-9.5-3.6-9.5-9.4 0-5.8 3.9-9.4 8.9-9.4 5.4 0 8.5 2.7 9 7.3h-5.6zM104.9 27h4.7v1.9c.6-1 2.3-2.3 4.1-2.3 2.3 0 3.6 1 4.2 2.4 1.1-1.6 2.6-2.4 4.5-2.4 3.8 0 5 2.1 5 5.7V40h-5.2v-6.6c0-1.9-.4-2.7-1.7-2.7-1.5 0-1.8 1.3-1.8 2.9V40h-5.2v-6.6c0-1.9-.4-2.7-1.7-2.7-1.5 0-1.8 1.3-1.8 2.9V40h-5.2V27zM129.7 27h4.7v1.9c.6-1 2.3-2.3 4.1-2.3 2.3 0 3.6 1 4.2 2.4 1.1-1.6 2.6-2.4 4.5-2.4 3.8 0 5 2.1 5 5.7V40H147v-6.6c0-1.9-.4-2.7-1.7-2.7-1.5 0-1.8 1.3-1.8 2.9V40h-5.2v-6.6c0-1.9-.4-2.7-1.7-2.7-1.5 0-1.8 1.3-1.8 2.9V40h-5.2V27zM168.6 39.9h-4.8V38c-1.3 1.8-2.6 2.3-4.7 2.3-2.8 0-4.7-1.7-4.7-5.4V27h5.1v7c0 1.8.6 2.4 1.9 2.4 1.5 0 2-1.1 2-3.1V27h5.2v12.9zM170.9 27h4.7v2c1.2-1.6 2.4-2.4 4.4-2.4 3.4 0 5 2 5 5.6V40h-5.2v-6.9c0-1.3-.3-2.4-1.8-2.4-1.6 0-2 1-2 2.7V40h-5.2V27zM81.3 50.9c-.1-1.8-1.3-2.9-3.1-2.9-2.1 0-3.3 1.8-3.3 5.2 0 2.5.5 4.9 3.5 4.9 1.9 0 2.8-1.3 3-3H87c-.5 4.6-3.8 7.4-8.5 7.4-5.9 0-9.5-3.6-9.5-9.4 0-5.8 3.9-9.4 8.9-9.4 5.4 0 8.5 2.7 9 7.3h-5.6zM104.9 44.1h5.2v17.8h-5.2zM113.1 44.1h5.1v17.8h-5.1zM130.1 54c0-1.2-1.1-2.3-2.3-2.3-1.5 0-2.4.9-2.4 2.3h4.7zm-4.7 2.6c0 1.5 1.2 2.6 2.6 2.6.8 0 1.6-.4 1.9-1.1h4.9c-.9 3.2-4.2 4.3-7.2 4.3-4.2 0-7.4-2.4-7.4-6.7 0-4.3 3.2-7 7.4-7 4.8 0 7.7 3.3 7.6 8h-9.8zM141.8 56.1c0 1.3.6 2.5 2 2.5 1.6.1 2.2-1.3 2.2-2.7 0-1.4-.5-2.8-2.2-2.8-1.5 0-2 1.3-2 3m2.1 7.7c1.5 0 2.1-.2 2.1-2v-1.1c-.7.7-1.9 1.4-3.7 1.4-3.6 0-5.6-2.8-5.6-6.1 0-3.2 1.5-6.6 5.8-6.6 1.6 0 3 .8 3.9 2.1v-1.7h4.5v10.5c0 2.7-.7 5.2-2.6 6.4-1.2.8-3.9.5-5.4.6h-1.7s0-2.4 0-3.4h2.7zM162.3 54c0-1.2-1.1-2.3-2.3-2.3-1.5 0-2.4.9-2.4 2.3h4.7zm-4.7 2.6c0 1.5 1.2 2.6 2.6 2.6.8 0 1.6-.4 1.9-1.1h4.9c-.9 3.2-4.2 4.3-7.2 4.3-4.2 0-7.4-2.4-7.4-6.7 0-4.3 3.2-7 7.4-7 4.8 0 7.7 3.3 7.6 8h-9.8zM186.8 19.8h5.2V25h-5.2zM212 27l-2.3 8-2.3-8H200v-3.2h-5.1V27h-8.1v13h5.2v-8.2h2.8v3.6c0 4.5.8 5 7.6 4.6v-3.7h-.8c-1.4 0-1.6-.4-1.6-1.6v-2.9h4.1l2.5 7.1c.5 1.4.2 1.9-1.5 1.9-.3 0-.7 0-1.1 0v3.6c.4 0 1.3.1 2.3.1 4.6 0 5.1-1.3 6.5-5.3L217 27h-5zM93.6 33.4c0 2.5.9 3.5 2.2 3.5 1.4 0 2.2-1.1 2.2-3.5 0-1.9-.8-3.3-2.2-3.3-1.7.1-2.2 1.9-2.2 3.3m2.2-6.7c4.6 0 7.4 2.7 7.4 6.7 0 4.8-3.2 7-7.4 7s-7.4-2.3-7.4-6.7c0-4.5 3-7 7.4-7M93.5 55.3c0 2.5.9 3.5 2.2 3.5 1.4 0 2.2-1.1 2.2-3.5 0-1.9-.8-3.3-2.2-3.3-1.7.1-2.2 1.9-2.2 3.3m2.2-6.7c4.6 0 7.4 2.7 7.4 6.7 0 4.8-3.2 7-7.4 7s-7.4-2.3-7.4-6.7c.1-4.5 3-7 7.4-7" class="st0"/></svg>